<?xml version="1.0" encoding="UTF-8" standalone="no"?>
<!-- Created with Inkscape (http://www.inkscape.org/) -->

<svg
   xmlns:dc="http://purl.org/dc/elements/1.1/"
   xmlns:cc="http://creativecommons.org/ns#"
   xmlns:rdf="http://www.w3.org/1999/02/22-rdf-syntax-ns#"
   xmlns:svg="http://www.w3.org/2000/svg"
   xmlns="http://www.w3.org/2000/svg"
   xmlns:sodipodi="http://sodipodi.sourceforge.net/DTD/sodipodi-0.dtd"
   xmlns:inkscape="http://www.inkscape.org/namespaces/inkscape"
   width="64"
   height="64"
   viewBox="0 0 64.000004 63.999997"
   id="svg2"
   version="1.1"
   inkscape:version="0.91 r13725"
   sodipodi:docname="compartir.svg">
  <defs
     id="defs4" />
  <sodipodi:namedview
     id="base"
     pagecolor="#ffffff"
     bordercolor="#666666"
     borderopacity="1.0"
     inkscape:pageopacity="0.0"
     inkscape:pageshadow="2"
     inkscape:zoom="1.6646875"
     inkscape:cx="78.592265"
     inkscape:cy="99.271242"
     inkscape:document-units="px"
     inkscape:current-layer="layer1"
     showgrid="false"
     fit-margin-top="5"
     fit-margin-right="5"
     fit-margin-bottom="5"
     fit-margin-left="5"
     inkscape:window-width="863"
     inkscape:window-height="479"
     inkscape:window-x="649"
     inkscape:window-y="234"
     inkscape:window-maximized="0"
     units="px" />
  <metadata
     id="metadata7">
    <rdf:RDF>
      <cc:Work
         rdf:about="">
        <dc:format>image/svg+xml</dc:format>
        <dc:type
           rdf:resource="http://purl.org/dc/dcmitype/StillImage" />
        <dc:title></dc:title>
      </cc:Work>
    </rdf:RDF>
  </metadata>
  <g
     inkscape:label="Capa 1"
     inkscape:groupmode="layer"
     id="layer1"
     transform="translate(-0.58103492,-198.41939)">
    <path
       style="fill:#333333"
       d="m 44.58287,258.88252 c -2.829949,-0.66437 -6.055427,-3.30185 -7.346664,-6.00739 -0.830838,-1.74087 -1.378766,-4.51539 -1.141495,-5.78014 l 0.152864,-0.81485 -6.02158,-3.50421 -6.021584,-3.50421 -1.372694,0.96157 c -2.161989,1.51448 -4.130353,2.05897 -7.017507,1.9412 -2.06399,-0.0842 -2.646581,-0.21095 -4.097331,-0.89142 -5.824813,-2.73209 -8.24511,-9.38503 -5.514241,-15.15761 1.759889,-3.7201 5.89521,-6.33785 10.000691,-6.33067 2.667447,0.005 4.67314,0.6675 6.963969,2.3014 l 1.038473,0.74068 5.920748,-3.47448 5.920746,-3.47448 0.03918,-1.7232 c 0.103522,-4.55382 2.604461,-8.22723 6.958343,-10.2205 2.111976,-0.96689 5.348333,-1.11821 7.613254,-0.35596 3.069566,1.03305 5.320581,2.95467 6.722442,5.73872 2.839399,5.63897 0.559522,12.30016 -5.180913,15.13724 -1.682252,0.83141 -2.091894,0.92829 -4.300344,1.01699 -2.813536,0.11301 -4.439238,-0.28132 -6.489612,-1.57412 l -1.261826,-0.7956 -6.144101,3.58443 c -5.902281,3.44335 -6.144102,3.61438 -6.144102,4.34535 0,0.73115 0.242758,0.90257 6.206186,4.38235 6.185557,3.60939 6.208333,3.62003 6.851995,3.19918 0.355195,-0.23224 1.262488,-0.72275 2.016208,-1.09004 1.253574,-0.61085 1.626394,-0.66801 4.373282,-0.6705 2.970531,-0.003 3.023267,0.007 4.894731,0.93228 3.892013,1.92354 6.423369,5.9246 6.423369,10.15278 0,5.01348 -3.836078,9.81693 -8.743375,10.94827 -1.320947,0.30453 -3.974127,0.29799 -5.299108,-0.0131 z m 4.161787,-6.21908 c 1.473395,-0.40914 2.845927,-1.8027 3.294187,-3.34466 0.692587,-2.38242 -0.281819,-4.62831 -2.488672,-5.73609 -1.414202,-0.70989 -2.743304,-0.78604 -4.066878,-0.23302 -4.259845,1.77988 -3.963012,8.03679 0.440638,9.28815 1.172788,0.33326 1.695729,0.33801 2.820725,0.0256 z M 18.401678,235.51912 c 3.766671,-1.71097 3.788638,-7.14451 0.03594,-8.89175 -2.035682,-0.9478 -3.760469,-0.69057 -5.419476,0.80824 -2.528359,2.28422 -1.97853,6.3916 1.058172,7.90486 1.53605,0.76544 2.908721,0.82214 4.32536,0.17865 z m 31.148494,-16.84427 c 3.023743,-1.51783 3.649333,-5.36718 1.261455,-7.76192 -1.910545,-1.91605 -4.354373,-2.0631 -6.59667,-0.39695 -2.119426,1.57486 -2.348751,5.19445 -0.459312,7.24973 0.767136,0.83447 2.357016,1.51585 3.552056,1.52233 0.588141,0.003 1.524811,-0.25294 2.242471,-0.61319 z"
       id="path4147"
       inkscape:connector-curvature="0" />
  </g>
</svg>
